<svg xmlns="http://www.w3.org/2000/svg" width="156.316" height="152.04" viewBox="0 0 156.316 152.04">
    <defs>
        <style>
            .cls-3{fill:#f4f4f4}.cls-4{fill:#211735}.cls-5{fill:#312045}.cls-6{fill:#e03133}
        </style>
    </defs>
    <g id="Group_1180" transform="translate(-101.02 -223.783)">
        <g id="Group_1162">
            <g id="Group_681" transform="translate(47.91 86.381)">
                <ellipse id="Ellipse_99" cx="76.837" cy="3.277" fill="#f7f7f7" rx="76.837" ry="3.277" transform="translate(55.752 262.093)"/>
                <path id="Path_2263" fill="#e4e0e5" d="M66.248 293.963a2.561 2.561 0 0 1 2.612-1.263c1.914.187 1.413-1.539 3.558-1.819s2.532.354 5.141-1.837 4.774 1.722 6.715.1 3.33-4.238 6.617-3.225 1.9 3.6 3.848 4.576 3.976 1.292 4.8 3.515z" transform="translate(-13.139 -30.216)"/>
                <g id="Group_680" transform="translate(58.923 137.402)">
                    <path id="Path_2264" d="M238.177 220.985a2.421 2.421 0 0 0 .682-1.669 2.9 2.9 0 0 0-5.761 0c0 .059.006.116.01.174h-.019c0-.058.01-.117.01-.177a2.9 2.9 0 0 0-5.761 0 2.475 2.475 0 0 0 .974 1.935l4.787 4.36 4.8-4.375a2.734 2.734 0 0 0 .251-.229l.024-.021z" class="cls-3" transform="translate(-93.885 -153.566)"/>
                    <path id="Path_2265" d="M132.542 140.938a2.018 2.018 0 0 0 .567-1.387 2.407 2.407 0 0 0-4.787 0c0 .049 0 .1.008.144h-.017c0-.049.009-.1.009-.147a2.407 2.407 0 0 0-4.787 0 2.056 2.056 0 0 0 .809 1.608l3.978 3.624 3.992-3.636a2.362 2.362 0 0 0 .209-.19l.02-.018z" class="cls-3" transform="translate(-72.735 -137.402)"/>
                    <path id="Path_2266" d="M68.742 233.907a2.013 2.013 0 0 0 .567-1.387 2.407 2.407 0 0 0-4.787 0c0 .049 0 .1.008.145h-.016c0-.049.008-.1.008-.146a2.407 2.407 0 0 0-4.787 0 2.056 2.056 0 0 0 .809 1.608l3.978 3.624 3.992-3.636a2.268 2.268 0 0 0 .209-.19l.02-.018z" class="cls-3" transform="translate(-59.735 -156.345)"/>
                    <path id="Path_2267" d="M201.986 190.438a2.016 2.016 0 0 0 .567-1.387 2.407 2.407 0 0 0-4.787 0c0 .049 0 .1.008.144h-.017c0-.049.009-.1.009-.146a2.407 2.407 0 0 0-4.787 0 2.056 2.056 0 0 0 .809 1.608l3.978 3.624 3.992-3.636a2.49 2.49 0 0 0 .209-.189l.02-.018z" class="cls-3" transform="translate(-86.884 -147.488)"/>
                    <path id="Path_2268" d="M212.5 260.954a.972.972 0 0 0 .274-.669 1.161 1.161 0 0 0-2.308 0 .672.672 0 0 0 0 .069h-.008v-.071a1.161 1.161 0 0 0-2.308 0 .991.991 0 0 0 .389.775l1.919 1.748 1.925-1.753a1.106 1.106 0 0 0 .1-.092l.01-.009z" class="cls-3" transform="translate(-89.976 -162.229)"/>
                    <path id="Path_2269" d="M206.448 153.01a.968.968 0 0 0 .273-.668 1.161 1.161 0 0 0-2.308 0v.069h-.008v-.071a1.161 1.161 0 0 0-2.308 0 .99.99 0 0 0 .39.775l1.918 1.748 1.925-1.753a1.1 1.1 0 0 0 .1-.092l.01-.009z" class="cls-3" transform="translate(-88.743 -140.235)"/>
                    <path id="Path_2270" d="M94.407 200.138a.971.971 0 0 0 .273-.669 1.161 1.161 0 0 0-2.308 0v.069h-.008v-.071a1.161 1.161 0 0 0-2.308 0 .989.989 0 0 0 .39.775l1.918 1.748 1.925-1.753a1 1 0 0 0 .1-.092l.01-.009z" class="cls-3" transform="translate(-65.914 -149.837)"/>
                    <path id="Path_2271" d="M90.511 260.954a.972.972 0 0 0 .273-.669 1.161 1.161 0 0 0-2.308 0v.069h-.008a.7.7 0 0 0 0-.071 1.161 1.161 0 0 0-2.308 0 .989.989 0 0 0 .39.775l1.918 1.748 1.925-1.753a1.107 1.107 0 0 0 .1-.092l.01-.009z" class="cls-3" transform="translate(-65.121 -162.229)"/>
                </g>
            </g>
            <g id="Group_692" transform="translate(-45.715 147.121)">
                <g id="Group_690" transform="translate(186.664 209.179)">
                    <path id="Path_2308" d="M214.069 486.822a7.494 7.494 0 0 1-5.472-2.145 7.416 7.416 0 0 1-2.165-5.472 7.3 7.3 0 0 1 2.245-5.492 7.577 7.577 0 0 1 5.492-2.185 8.568 8.568 0 0 1 3.458.712 7.174 7.174 0 0 1 2.656 1.914l-1.584 1.564a5.819 5.819 0 0 0-4.51-1.945 5.5 5.5 0 0 0-3.869 9.3 5.167 5.167 0 0 0 3.809 1.523 6.247 6.247 0 0 0 2.465-.511 5.929 5.929 0 0 0 2.045-1.413v-2.646h-4.671v-2.085h6.815v5.813a8.714 8.714 0 0 1-6.714 3.068z" class="cls-4" transform="translate(-206.432 -471.528)"/>
                    <path id="Path_2309" d="M274.681 499.146h-2.2v-10.8h2.1v1.544a3.228 3.228 0 0 1 3.067-1.824 4.448 4.448 0 0 1 1.283.18l-.2 2.145a3.387 3.387 0 0 0-1.183-.2 2.649 2.649 0 0 0-2.085.882 3.721 3.721 0 0 0-.782 2.546z" class="cls-4" transform="translate(-256.541 -484.072)"/>
                    <path id="Path_2310" d="M297.481 493.733a5.569 5.569 0 0 1 1.6-4.009 5.5 5.5 0 0 1 4.109-1.663 5.434 5.434 0 0 1 4.089 1.663 5.811 5.811 0 0 1 0 8.058 5.426 5.426 0 0 1-4.089 1.644 5.533 5.533 0 0 1-4.109-1.644 5.617 5.617 0 0 1-1.6-4.049zm9.2 0a3.542 3.542 0 0 0-1.022-2.546 3.189 3.189 0 0 0-2.465-1.082 3.291 3.291 0 0 0-2.486 1.082 3.76 3.76 0 0 0 0 5.111 3.319 3.319 0 0 0 2.486 1.062 3.256 3.256 0 0 0 2.465-1.062 3.565 3.565 0 0 0 1.023-2.565z" class="cls-4" transform="translate(-275.512 -484.072)"/>
                    <path id="Path_2311" d="M355.147 490.69l-5.893 7.517h6.074v1.884h-9.08v-1.463l5.913-7.437h-5.593v-1.884h8.579z" class="cls-4" transform="translate(-312.512 -485.017)"/>
                    <path id="Path_2312" d="M394.621 489.908v-1.5h2.125v10.8h-2.125v-1.483a4.613 4.613 0 0 1-3.688 1.744 5.044 5.044 0 0 1-3.869-1.644 5.785 5.785 0 0 1-1.523-4.089 5.549 5.549 0 0 1 1.523-4.009 5.138 5.138 0 0 1 3.869-1.583 4.593 4.593 0 0 1 3.688 1.764zm-3.388 7.537a3.3 3.3 0 0 0 2.506-1.062 3.868 3.868 0 0 0 0-5.151 3.3 3.3 0 0 0-2.506-1.062 3.222 3.222 0 0 0-2.505 1.062 3.955 3.955 0 0 0 0 5.171 3.251 3.251 0 0 0 2.506 1.041z" class="cls-4" transform="translate(-342.325 -484.135)"/>
                    <path id="Path_2313" d="M446.117 488.144a5 5 0 0 1 3.829 1.643 6 6 0 0 1 0 8.038 5.022 5.022 0 0 1-3.849 1.644 4.484 4.484 0 0 1-3.688-1.764v5.953H440.2V488.4h2.205v1.564a4.556 4.556 0 0 1 3.712-1.82zm3.147 5.652a3.642 3.642 0 0 0-.962-2.566 3.486 3.486 0 0 0-5.011 0 3.732 3.732 0 0 0-.942 2.566 3.785 3.785 0 0 0 .942 2.606 3.533 3.533 0 0 0 5.011 0 3.694 3.694 0 0 0 .962-2.602z" class="cls-4" transform="translate(-383.799 -484.135)"/>
                    <path id="Path_2314" d="M498.454 488.144a5 5 0 0 1 3.829 1.643 6.005 6.005 0 0 1 0 8.038 5.022 5.022 0 0 1-3.849 1.644 4.484 4.484 0 0 1-3.688-1.764v5.953h-2.205V488.4h2.205v1.564a4.555 4.555 0 0 1 3.708-1.82zm3.146 5.656a3.642 3.642 0 0 0-.962-2.566 3.486 3.486 0 0 0-5.011 0 3.731 3.731 0 0 0-.942 2.566 3.784 3.784 0 0 0 .942 2.606 3.533 3.533 0 0 0 5.011 0 3.694 3.694 0 0 0 .962-2.606z" class="cls-4" transform="translate(-423.508 -484.135)"/>
                </g>
                <g id="Group_691" transform="translate(180.377 125.749)">
                    <path id="Path_2315" d="M428.488 195.911l-7.1 3.36-8.329-18.435 6.763-3.2a4.526 4.526 0 0 1 6.028 2.152l4.786 10.1a4.527 4.527 0 0 1-2.148 6.023z" class="cls-5" transform="translate(-356.92 -164.783)"/>
                    <path id="Path_2316" d="M293.267 216.419l-3.207 1.463a2.623 2.623 0 0 1-3.476-1.3l-7.09-15.537-14.8 6.752-10.147 20.083a2.626 2.626 0 0 1-3.528 1.159l-3.146-1.589a2.626 2.626 0 0 1-1.159-3.528l10.73-21.23.416-.826a2.6 2.6 0 0 1 .786-.929 2.514 2.514 0 0 1 .287-.155l.58-.264 18.075-8.246a2.6 2.6 0 0 1 .614-.39l3.207-1.463a2.624 2.624 0 0 1 3.476 1.3l9.683 21.224a2.624 2.624 0 0 1-1.301 3.476z" class="cls-5" transform="translate(-230.493 -174.636)"/>
                    <path id="Path_2317" d="M428.343 311.208a18.3 18.3 0 1 0 18.3 18.3 18.3 18.3 0 0 0-18.3-18.3zm0 27.284a8.987 8.987 0 1 1 8.985-8.985 8.986 8.986 0 0 1-8.985 8.985z" class="cls-6" transform="translate(-354.629 -266.46)"/>
                    <path id="Path_2318" d="M363.077 275.984a4.694 4.694 0 0 1-3.615 4.568l-8.238 3.08-.022.007c-.285.094-.556.195-.816.3-.087.033-.173.072-.257.109a6.957 6.957 0 0 0-2.8 2.019 5.686 5.686 0 0 0-.823 4.926l3.919 17.815-.025.007a4.846 4.846 0 0 1 .094.95 4.7 4.7 0 0 1-9.26 1.105l-4.247-18.917q-1.652-7.356 1.5-11.976c2.033-2.976 11.961-6.858 18.1-8.342a4.7 4.7 0 0 1 6.49 4.341z" class="cls-6" transform="translate(-298.767 -236.173)"/>
                    <path id="Path_2319" d="M216.971 329.51a18.273 18.273 0 1 1-.556-4.5h-9.959a8.988 8.988 0 1 0-1.381 10.8h-8.247v-7.9h10.688v-.01h9.384c.047.531.071 1.068.071 1.61z" class="cls-6" transform="translate(-180.377 -266.464)"/>
                    <circle id="Ellipse_104" cx="7.623" cy="7.623" r="7.623" class="cls-5" transform="translate(37.502)"/>
                </g>
            </g>
        </g>
    </g>
</svg>
